<svg viewBox="0 0 16 16" xmlns="http://www.w3.org/2000/svg"><g fill="#304060" stroke-width="63.5"><path d="M3.654 1.827a1.827 1.827 0 01-1.827 1.827A1.827 1.827 0 010 1.827 1.827 1.827 0 011.827 0a1.827 1.827 0 011.827 1.827zM9.827 1.827A1.827 1.827 0 018 3.654a1.827 1.827 0 01-1.827-1.827A1.827 1.827 0 018 0a1.827 1.827 0 011.827 1.827z"/><path d="M16 1.827a1.827 1.827 0 01-1.827 1.827 1.827 1.827 0 01-1.827-1.827A1.827 1.827 0 0114.173 0 1.827 1.827 0 0116 1.827z" fill="#b2af86"/><path d="M3.654 8a1.827 1.827 0 01-1.827 1.827A1.827 1.827 0 010 8a1.827 1.827 0 011.827-1.827A1.827 1.827 0 013.654 8zM16 8a1.827 1.827 0 01-1.827 1.827A1.827 1.827 0 0112.346 8a1.827 1.827 0 011.827-1.827A1.827 1.827 0 0116 8zM3.654 14.173A1.827 1.827 0 011.827 16 1.827 1.827 0 010 14.173a1.827 1.827 0 011.827-1.827 1.827 1.827 0 011.827 1.827zM16 14.173A1.827 1.827 0 0114.173 16a1.827 1.827 0 01-1.827-1.827 1.827 1.827 0 011.827-1.827A1.827 1.827 0 0116 14.173z"/></g><g stroke-width="63.5" color="#000"><g stroke-linecap="round" stroke-linejoin="round"><path d="M7.041 12.397l-.047-.081h2.012l-.096.163H7.088z" style="-inkscape-stroke:none" paint-order="fill markers stroke"/><path d="M6.994 12.237a.079.079 0 00-.068.118l.047.081.046.082a.079.079 0 00.069.04H8.91a.079.079 0 00.068-.04l.048-.08.048-.082a.079.079 0 00-.068-.119H8zm.136.158h1.738l-.003.005H7.133z" style="-inkscape-stroke:none" paint-order="fill markers stroke"/><g fill="#a3a3a3" paint-order="fill markers stroke"><path d="M5.117 12.617c-.01-.016-.022-.54-.026-1.163l-.007-1.135.081-.138c.087-.148.288-.335.47-.437l.111-.063.017.112c.102.671.308 1.34.592 1.916.104.212.18.394.17.405s-.308.127-.657.256-.658.245-.685.256c-.027.01-.057.006-.066-.01z" style="-inkscape-stroke:none"/><path d="M5.78 9.61a.079.079 0 00-.072.003l-.112.063c-.196.11-.4.297-.499.465l-.081.138a.079.079 0 00-.011.04l.008 1.135a56.862 56.862 0 00.017 1.065 2.428 2.428 0 00.008.11c.001.006-.001.009.011.03a.11.11 0 00.084.05c.027.004.053 0 .08-.01l.219-.082.463-.173a30.222 30.222 0 00.644-.249l.016-.007c.005-.002.005.001.025-.018.027-.027.024-.047.024-.058a.104.104 0 00-.002-.024 1.335 1.335 0 00-.046-.131 5.237 5.237 0 00-.13-.282 6.59 6.59 0 01-.585-1.893l-.017-.112a.079.079 0 00-.043-.06zm-.095.196a6.74 6.74 0 00.6 1.938c.05.105.095.202.125.273.01.023.014.037.02.053l-.136.055c-.118.046-.28.107-.454.172a273.34 273.34 0 00-.651.242l-.001-.026c-.003-.06-.005-.146-.008-.251-.004-.21-.008-.497-.01-.809l-.007-1.112.07-.12c.075-.127.273-.314.44-.408zM10.216 12.403c-.35-.13-.666-.248-.701-.264-.065-.027-.062-.034.138-.45a6.303 6.303 0 00.578-1.866l.018-.141.121.067c.18.1.402.311.473.449.049.094.066.192.077.437.016.387-.024 2.007-.05 2.005-.01-.001-.305-.108-.654-.237z" style="-inkscape-stroke:none"/><path d="M10.214 9.611a.079.079 0 00-.043.06l-.018.142a6.232 6.232 0 01-.57 1.842c-.101.208-.152.31-.174.382-.01.036-.02.074.002.115.021.041.055.052.073.06.027.012.109.042.236.09a108.413 108.413 0 001.122.412c.004 0-.004.002.022.004a.084.084 0 00.059-.02c.01-.009.015-.016.018-.021.006-.01.007-.016.008-.02a.908.908 0 00.01-.08 31.121 31.121 0 00.03-.79c.012-.455.018-.954.01-1.155-.011-.248-.03-.363-.086-.47-.086-.168-.307-.372-.505-.482l-.12-.067a.079.079 0 00-.074-.001zm.098.196l.02.01c.163.092.386.31.441.417.042.081.058.162.068.404.008.187.002.691-.009 1.143a31.03 31.03 0 01-.028.753l-.107-.039a71.797 71.797 0 01-1.133-.421c.015-.046.064-.151.16-.351.3-.625.507-1.289.585-1.89z" style="-inkscape-stroke:none"/></g><path d="M6.928 5.283c.109-.128.644-.66.942-.936l.124-.115.113.096c.18.155.894.864.99.985l.089.111H6.809z" fill="#ec0000" style="-inkscape-stroke:none" paint-order="fill markers stroke"/><path d="M7.993 4.153a.079.079 0 00-.052.021l-.124.115c-.15.139-.36.341-.544.525a9.552 9.552 0 00-.405.418l-.12.141a.079.079 0 00.06.13h2.377a.079.079 0 00.062-.128l-.088-.111a3.35 3.35 0 00-.175-.19 23.373 23.373 0 00-.826-.806l-.113-.096a.079.079 0 00-.052-.019zm.003.184l.06.05a23.256 23.256 0 01.815.797c.074.078.125.133.149.161H6.978l.01-.01c.048-.058.211-.226.396-.41.184-.182.392-.384.54-.52z" fill="#ec0000" style="-inkscape-stroke:none" paint-order="fill markers stroke"/><path d="M6.658 11.732c-.43-.829-.609-1.493-.67-2.478-.087-1.388-.075-1.88.058-2.4.064-.248.283-.73.453-.996l.107-.168H9.39l.128.2c.268.415.427.826.508 1.31.044.262.049.416.032 1.004-.05 1.82-.164 2.406-.659 3.405l-.218.44H6.823z" fill="#fff" style="-inkscape-stroke:none" paint-order="fill markers stroke"/><path d="M6.606 5.611a.079.079 0 00-.066.037l-.108.168c-.176.277-.394.753-.462 1.02-.136.53-.147 1.033-.06 2.423.06.992.245 1.673.679 2.51l.164.317a.079.079 0 00.07.043H9.18a.079.079 0 00.07-.044l.219-.44c.497-1.006.616-1.615.667-3.438.017-.59.011-.754-.033-1.02a3.435 3.435 0 00-.52-1.34l-.128-.2a.079.079 0 00-.066-.035H7.998zm.044.158h2.696l.105.164c.263.407.417.806.497 1.28.043.258.047.402.03.99-.05 1.816-.16 2.38-.65 3.371l-.197.397H6.87l-.143-.275c-.426-.822-.6-1.47-.662-2.446-.086-1.387-.074-1.867.056-2.376.06-.23.28-.718.443-.973z" fill="#fff" style="-inkscape-stroke:none" paint-order="fill markers stroke"/><path d="M8 12.593l-.807.026s-.593.4-.412 1.25c.182.85 1.22 1.993 1.22 1.993M8 12.592l.807.027s.593.4.412 1.25c-.182.85-1.22 1.993-1.22 1.993" fill="#d46e00" style="-inkscape-stroke:none"/><path d="M7.996 12.475l-.807.026a.118.118 0 00-.062.02s-.17.116-.309.343-.25.575-.152 1.03c.098.459.41.961.697 1.36.286.397.55.688.55.688a.118.118 0 00.004.002.118.118 0 00.003.006.118.118 0 00.041.014.118.118 0 00.039.014.118.118 0 00.039-.014.118.118 0 00.04-.014.118.118 0 00.007-.008.118.118 0 00.001 0s.264-.291.55-.689c.286-.398.599-.9.697-1.36.097-.454-.014-.802-.152-1.03s-.309-.342-.309-.342a.118.118 0 00-.062-.02l-.807-.026a.118.118 0 00-.004.001.118.118 0 00-.004-.001zM8 12.71l.763.025c.03.02.12.092.217.25.113.186.208.463.123.858-.083.39-.38.885-.658 1.271a7.62 7.62 0 01-.445.566 7.622 7.622 0 01-.445-.566c-.278-.386-.575-.88-.658-1.27-.085-.396.01-.673.123-.858a.854.854 0 01.217-.251z" fill="#b7490b" style="-inkscape-stroke:none"/></g><g fill="#304060" stroke-linecap="round" stroke-linejoin="round"><path d="M7.988 3.95a.118.118 0 00-.03.016.118.118 0 00-.033.01s-.955.778-1.47 1.502c-.508.713-.68 1.276-.749 1.81-.036.283-.022.82-.002 1.3.016.408.036.715.043.815a2.234 2.234 0 00-.386.223c-.235.167-.495.416-.52.756-.021.297-.013.903 0 1.444.013.541.031 1.012.031 1.012a.118.118 0 00.16.106l1.673-.62.227.363a.118.118 0 00.104.055L8 12.711l.965.031a.118.118 0 00.104-.055l.226-.363 1.674.62a.118.118 0 00.159-.106s.018-.47.031-1.012c.013-.54.021-1.147 0-1.444-.025-.34-.285-.59-.52-.756a2.235 2.235 0 00-.385-.223c.006-.1.026-.407.043-.814.02-.48.033-1.018-.003-1.302-.068-.533-.24-1.096-.748-1.809-.516-.724-1.471-1.502-1.471-1.502a.118.118 0 00-.033-.01A.118.118 0 008 3.954a.118.118 0 00-.012-.004zM8 4.223c.183.154.93.797 1.353 1.392.489.687.642 1.197.707 1.702.03.236.02.785 0 1.262-.02.476-.047.889-.047.889a.118.118 0 00.073.117s.206.084.416.233c.21.15.405.358.421.582.02.267.013.882 0 1.42-.011.452-.022.727-.026.845l-1.61-.596a.118.118 0 00-.141.049l-.242.386-.9-.03a.118.118 0 00-.004.002.118.118 0 00-.004-.001l-.9.029-.242-.386a.118.118 0 00-.14-.049l-1.61.596c-.005-.118-.016-.393-.027-.844-.012-.54-.02-1.154 0-1.421.017-.224.212-.433.422-.582.21-.15.415-.233.415-.233a.118.118 0 00.073-.117s-.028-.413-.047-.89-.03-1.025 0-1.26c.065-.506.218-1.016.707-1.703C7.07 5.02 7.817 4.377 8 4.223z" style="-inkscape-stroke:none"/><path d="M6.55 5.428a.118.118 0 00-.118.119.118.118 0 00.119.118h2.898a.118.118 0 00.118-.118.118.118 0 00-.118-.119zM5.863 9.358a.118.118 0 00-.111.124c.054 1.057.46 2.023.9 2.759a.118.118 0 00.163.04.118.118 0 00.04-.161c-.426-.713-.816-1.646-.868-2.65a.118.118 0 00-.124-.112zm4.274 0a.118.118 0 00-.124.112c-.052 1.004-.442 1.937-.869 2.65a.118.118 0 00.041.162.118.118 0 00.162-.041c.44-.736.847-1.702.901-2.759a.118.118 0 00-.111-.124z" style="-inkscape-stroke:none"/><path d="M6.754 12.062a.118.118 0 00-.118.118.118.118 0 00.118.118h2.492a.118.118 0 00.118-.118.118.118 0 00-.118-.118z" style="-inkscape-stroke:none"/></g><path d="M9.235 8A1.235 1.235 0 018 9.235 1.235 1.235 0 016.765 8 1.235 1.235 0 018 6.765 1.235 1.235 0 019.235 8z" fill="#46e9ff" style="-inkscape-stroke:none"/><path d="M8 6.647c-.746 0-1.353.607-1.353 1.353S7.254 9.353 8 9.353 9.353 8.746 9.353 8 8.746 6.647 8 6.647zm0 .236c.618 0 1.117.499 1.117 1.117S8.618 9.117 8 9.117 6.883 8.618 6.883 8 7.382 6.883 8 6.883z" fill="#304060" style="-inkscape-stroke:none"/></g><g fill="#45432c" stroke-linecap="round" stroke-linejoin="round" stroke-width="952.5" paint-order="fill markers stroke"><path d="M13.992 1.852a.511.511 0 01-.511.511.511.511 0 01-.512-.511.511.511 0 01.512-.512.511.511 0 01.511.512zM14.429 2.959a.316.322 0 01-.316.322.316.322 0 01-.316-.322.316.322 0 01.316-.322.316.322 0 01.316.322zM15.5 2.725a.113.351 34.074 01-.29.227.113.351 34.074 01.103-.354.113.351 34.074 01.29-.228.113.351 34.074 01-.102.355zM13.544.551a.315.132-29.714 01-.21.271.315.132-29.714 01-.338.041.315.132-29.714 01.209-.27.315.132-29.714 01.339-.042zM14.81.413a.322.144 9.012 01-.34.092.322.144 9.012 01-.296-.193.322.144 9.012 01.34-.092.322.144 9.012 01.295.193z"/></g></svg>