<svg viewBox="0 0 16 16" xmlns="http://www.w3.org/2000/svg"><g stroke-width="63.5"><path d="M1.827 6.488h12.346c.838 0 1.512.674 1.512 1.512v6.173c0 .838-.674 1.512-1.512 1.512H1.827a1.509 1.509 0 01-1.512-1.512V8c0-.838.674-1.512 1.512-1.512z" color="#000" fill="#e2bb30" style="-inkscape-stroke:none" paint-order="fill markers stroke"/><path d="M1.827 6.173A1.83 1.83 0 000 8v6.173A1.83 1.83 0 001.827 16h12.346A1.83 1.83 0 0016 14.173V8a1.83 1.83 0 00-1.827-1.827zm0 .63h12.346c.669 0 1.197.528 1.197 1.197v6.173c0 .669-.528 1.197-1.197 1.197H1.827A1.187 1.187 0 01.63 14.173V8c0-.669.528-1.197 1.197-1.197z" color="#000" fill="#b5911a" style="-inkscape-stroke:none" paint-order="fill markers stroke"/><path d="M1.056 8.916l-.387.497 6.852 5.334.387-.497zm13.888 0L8.092 14.25l.387.497 6.852-5.334z" color="#000" fill="#b5911a" style="-inkscape-stroke:none"/><path d="M.456 5.427v.394h15.088v-.394z" color="#000" fill="#d2a81f" style="-inkscape-stroke:none"/><g stroke-linecap="round" stroke-linejoin="round" color="#000"><path d="M8 1.827L7.123.596.997 4.963a1.625 1.625 0 00-.682 1.323V8h15.37V6.286c0-.525-.254-1.018-.682-1.323L8.877.596z" fill="#e2bb30" style="-inkscape-stroke:none"/><path d="M7.092.282A.315.315 0 006.94.34L.814 4.706A1.94 1.94 0 000 6.286V8a.315.315 0 00.315.315h15.37A.315.315 0 0016 8V6.286a1.94 1.94 0 00-.814-1.58L9.06.34a.315.315 0 00-.44.074L8 1.284l-.621-.87a.315.315 0 00-.287-.132zm-.043.753l.695.975a.315.315 0 00.512 0l.695-.975 5.87 4.184c.345.246.55.643.55 1.067v1.4H.63v-1.4c0-.424.204-.82.55-1.067z" fill="#b5911a" style="-inkscape-stroke:none"/></g><g fill="#304060"><path d="M3.654 1.827a1.827 1.827 0 01-1.827 1.827A1.827 1.827 0 010 1.827 1.827 1.827 0 011.827 0a1.827 1.827 0 011.827 1.827zM9.827 1.827A1.827 1.827 0 018 3.654a1.827 1.827 0 01-1.827-1.827A1.827 1.827 0 018 0a1.827 1.827 0 011.827 1.827zM16 1.827a1.827 1.827 0 01-1.827 1.827 1.827 1.827 0 01-1.827-1.827A1.827 1.827 0 0114.173 0 1.827 1.827 0 0116 1.827zM3.654 8a1.827 1.827 0 01-1.827 1.827A1.827 1.827 0 010 8a1.827 1.827 0 011.827-1.827A1.827 1.827 0 013.654 8zM9.827 8A1.827 1.827 0 018 9.827 1.827 1.827 0 016.173 8 1.827 1.827 0 018 6.173 1.827 1.827 0 019.827 8zM16 8a1.827 1.827 0 01-1.827 1.827A1.827 1.827 0 0112.346 8a1.827 1.827 0 011.827-1.827A1.827 1.827 0 0116 8zM3.654 14.173A1.827 1.827 0 011.827 16 1.827 1.827 0 010 14.173a1.827 1.827 0 011.827-1.827 1.827 1.827 0 011.827 1.827zM9.827 14.173A1.827 1.827 0 018 16a1.827 1.827 0 01-1.827-1.827A1.827 1.827 0 018 12.346a1.827 1.827 0 011.827 1.827zM16 14.173A1.827 1.827 0 0114.173 16a1.827 1.827 0 01-1.827-1.827 1.827 1.827 0 011.827-1.827A1.827 1.827 0 0116 14.173z"/></g></g></svg>