<svg viewBox="0 0 16 16" xmlns="http://www.w3.org/2000/svg"><path d="M8 3.625L3.625 6.151 8 8.677l4.375-2.526L8 3.625" fill="#5f4e1d"/><path d="M7.844 3.625v5.052h.312V3.625z" color="#000" style="-inkscape-stroke:none"/><g fill="#304060"><path d="M3.625 1.813a1.813 1.813 0 01-1.813 1.812A1.813 1.813 0 010 1.812 1.813 1.813 0 011.813 0a1.813 1.813 0 011.812 1.813zM9.813 1.813A1.813 1.813 0 018 3.625a1.813 1.813 0 01-1.813-1.813A1.813 1.813 0 018 0a1.813 1.813 0 011.813 1.813zM16 1.813a1.813 1.813 0 01-1.813 1.812 1.813 1.813 0 01-1.812-1.813A1.813 1.813 0 0114.188 0 1.813 1.813 0 0116 1.813zM3.625 8a1.813 1.813 0 01-1.813 1.813A1.813 1.813 0 010 8a1.813 1.813 0 011.813-1.813A1.813 1.813 0 013.625 8zM9.813 8A1.813 1.813 0 018 9.813 1.813 1.813 0 016.187 8 1.813 1.813 0 018 6.187 1.813 1.813 0 019.813 8zM16 8a1.813 1.813 0 01-1.813 1.813A1.813 1.813 0 0112.376 8a1.813 1.813 0 011.813-1.813A1.813 1.813 0 0116 8zM3.625 14.188A1.813 1.813 0 011.812 16 1.813 1.813 0 010 14.187a1.813 1.813 0 011.813-1.812 1.813 1.813 0 011.812 1.813zM9.813 14.188A1.813 1.813 0 018 16a1.813 1.813 0 01-1.813-1.813A1.813 1.813 0 018 12.376a1.813 1.813 0 011.813 1.813zM16 14.188a1.813 1.813 0 01-1.813 1.813 1.813 1.813 0 01-1.812-1.813 1.813 1.813 0 011.813-1.812A1.813 1.813 0 0116 14.188z"/></g><path d="M3.625 6.15V9.85L8 12.375V8.677L3.625 6.15" fill="#a68a34"/><path d="M12.375 6.15L8 8.678v3.698l4.375-2.526z" fill="#806b28"/><path d="M7.96 3.474a.156.156 0 00-.017.013.156.156 0 00-.021.003L3.547 6.016a.156.156 0 00-.015.017.156.156 0 00-.029.035.156.156 0 00-.025.06.156.156 0 00-.01.023v3.698a.156.156 0 00.079.135l4.375 2.526a.156.156 0 00.078.021.156.156 0 00.078-.02l4.375-2.527a.156.156 0 00.078-.135V6.151a.156.156 0 00-.003-.026.156.156 0 00-.001-.01.156.156 0 00-.023-.05.156.156 0 00-.008-.01.156.156 0 00-.043-.04L8.078 3.49a.156.156 0 00-.02-.003A.156.156 0 008 3.479a.156.156 0 00-.04-.005zm.04.331l4.063 2.346L8 8.496 3.938 6.151zM3.781 6.422l4.063 2.345v3.337L3.78 9.76zm8.438 0v3.337l-4.063 2.345V8.767z" color="#000" style="-inkscape-stroke:none"/><g stroke-linecap="round" stroke-linejoin="round" color="#000"><path d="M3.625 6.15l-.781 2.376 4.375 2.526L8 8.677 3.625 6.15" fill="#a68a34" style="-inkscape-stroke:none"/><path d="M3.585 6a.156.156 0 00-.014.01.156.156 0 00-.046.035.156.156 0 00-.035.028.156.156 0 00-.002.016.156.156 0 00-.011.013l-.782 2.376a.156.156 0 00.07.184l4.376 2.526a.156.156 0 00.226-.087l.781-2.375a.156.156 0 00-.07-.185L3.703 6.016a.156.156 0 00-.003 0 .156.156 0 00-.026-.014.156.156 0 00-.045.004A.156.156 0 003.585 6zm.128.382L7.812 8.75 7.13 10.82 3.032 8.455z" style="-inkscape-stroke:none"/><path d="M8 8.677l.78 2.373 4.376-2.526-.781-2.373L8 8.677" fill="#806b28" style="-inkscape-stroke:none"/><path d="M12.431 6.005a.156.156 0 00-.134.01L7.922 8.543a.156.156 0 00-.027.035.156.156 0 00-.035.046.156.156 0 00-.005.058.156.156 0 00-.003.045l.78 2.373a.156.156 0 00.227.086l4.375-2.526a.156.156 0 00.07-.184l-.78-2.373a.156.156 0 00-.093-.097zm-.144.377l.68 2.07-4.098 2.366-.68-2.07z" style="-inkscape-stroke:none"/></g></svg>