<svg viewBox="0 0 16 16" xmlns="http://www.w3.org/2000/svg"><g fill="#304060"><path d="M3.654 1.827a1.827 1.827 0 01-1.827 1.827A1.827 1.827 0 010 1.827 1.827 1.827 0 011.827 0a1.827 1.827 0 011.827 1.827zM9.827 1.827A1.827 1.827 0 018 3.654a1.827 1.827 0 01-1.827-1.827A1.827 1.827 0 018 0a1.827 1.827 0 011.827 1.827zM16 1.827a1.827 1.827 0 01-1.827 1.827 1.827 1.827 0 01-1.827-1.827A1.827 1.827 0 0114.173 0 1.827 1.827 0 0116 1.827zM3.654 8a1.827 1.827 0 01-1.827 1.827A1.827 1.827 0 010 8a1.827 1.827 0 011.827-1.827A1.827 1.827 0 013.654 8zM9.827 8A1.827 1.827 0 018 9.827 1.827 1.827 0 016.173 8 1.827 1.827 0 018 6.173 1.827 1.827 0 019.827 8zM16 8a1.827 1.827 0 01-1.827 1.827A1.827 1.827 0 0112.346 8a1.827 1.827 0 011.827-1.827A1.827 1.827 0 0116 8zM3.654 14.173A1.827 1.827 0 011.827 16 1.827 1.827 0 010 14.173a1.827 1.827 0 011.827-1.827 1.827 1.827 0 011.827 1.827zM9.827 14.173A1.827 1.827 0 018 16a1.827 1.827 0 01-1.827-1.827A1.827 1.827 0 018 12.346a1.827 1.827 0 011.827 1.827zM16 14.173A1.827 1.827 0 0114.173 16a1.827 1.827 0 01-1.827-1.827 1.827 1.827 0 011.827-1.827A1.827 1.827 0 0116 14.173z"/></g><g fill="#f30000" stroke-width="4032.2" color="#000"><path d="M9.725 3.627c-.336-.001-.696.013-1.084.043-1.68.13-3.425 1.144-4.791 2.1-.358.251-.687.5-.982.73a1.827 1.827 0 01.611.721c.275-.214.581-.444.913-.676 1.305-.915 2.986-1.83 4.321-1.933 1.465-.113 2.403.022 3.064.33.66.306 1.093.792 1.543 1.532l.808-.49c-.498-.82-1.08-1.494-1.953-1.9-.653-.304-1.442-.452-2.45-.457z" style="-inkscape-stroke:none"/><path d="M13.97 6.633l-1.948-.476-.49-.808 1.947.477.476-1.948.49.808z" fill-rule="evenodd" style="-inkscape-stroke:none"/></g></svg>