<svg viewBox="0 0 16 16" xmlns="http://www.w3.org/2000/svg"><g stroke-width="63.5"><g fill="#304060"><path d="M3.654 1.827a1.827 1.827 0 01-1.827 1.827A1.827 1.827 0 010 1.827 1.827 1.827 0 011.827 0a1.827 1.827 0 011.827 1.827zM9.827 1.827A1.827 1.827 0 018 3.654a1.827 1.827 0 01-1.827-1.827A1.827 1.827 0 018 0a1.827 1.827 0 011.827 1.827zM16 1.827a1.827 1.827 0 01-1.827 1.827 1.827 1.827 0 01-1.827-1.827A1.827 1.827 0 0114.173 0 1.827 1.827 0 0116 1.827zM3.654 8a1.827 1.827 0 01-1.827 1.827A1.827 1.827 0 010 8a1.827 1.827 0 011.827-1.827A1.827 1.827 0 013.654 8zM9.827 8A1.827 1.827 0 018 9.827 1.827 1.827 0 016.173 8 1.827 1.827 0 018 6.173 1.827 1.827 0 019.827 8zM16 8a1.827 1.827 0 01-1.827 1.827A1.827 1.827 0 0112.346 8a1.827 1.827 0 011.827-1.827A1.827 1.827 0 0116 8zM3.654 14.173A1.827 1.827 0 011.827 16 1.827 1.827 0 010 14.173a1.827 1.827 0 011.827-1.827 1.827 1.827 0 011.827 1.827zM9.827 14.173A1.827 1.827 0 018 16a1.827 1.827 0 01-1.827-1.827A1.827 1.827 0 018 12.346a1.827 1.827 0 011.827 1.827zM16 14.173A1.827 1.827 0 0114.173 16a1.827 1.827 0 01-1.827-1.827 1.827 1.827 0 011.827-1.827A1.827 1.827 0 0116 14.173z"/></g><g stroke-linecap="round" stroke-linejoin="round" color="#000" paint-order="fill markers stroke"><path d="M8.559 14.243l-1.117-.003.003-1.393 1.117.003zm-1.435-.003l1.752.004-.88 1.255-.435-.63z" fill="#00ff69" style="-inkscape-stroke:none"/><path d="M7.445 12.768a.079.079 0 00-.079.079l-.003 1.314h-.239a.079.079 0 00-.065.123l.437.63.436.63a.079.079 0 00.13 0l.439-.627.44-.628a.079.079 0 00-.065-.124h-.239l.004-1.315a.079.079 0 00-.079-.079zm.079.158l.96.003-.004 1.235-.96-.002zm-.25 1.393h.167L8 14.32l.558.002h.167l-.353.504-.375.535-.372-.537z" fill="#17b54d" style="-inkscape-stroke:none"/><path d="M7.441 1.759h1.117v1.393H7.441zm1.435 0H7.124L8 .502l.438.628z" fill="#00ff69" style="-inkscape-stroke:none"/><path d="M8 .423a.079.079 0 00-.065.034l-.438.628-.438.629a.079.079 0 00.065.124h.239v1.314a.079.079 0 00.078.079h1.117a.079.079 0 00.08-.079V1.838h.238a.079.079 0 00.064-.124l-.437-.629-.438-.628A.079.079 0 008 .423zm0 .216l.373.536.352.505h-1.45l.352-.505zm-.48 1.199h.96v1.235h-.96z" fill="#17b54d" style="-inkscape-stroke:none"/><path d="M1.759 8.559V7.442h1.393v1.117zm0-1.435v1.752L.502 8l.628-.438z" fill="#005aff" style="-inkscape-stroke:none"/><path d="M1.795 7.054a.079.079 0 00-.081.005l-.629.438-.628.438a.079.079 0 000 .13l.628.438.629.438a.079.079 0 00.124-.065v-.239h1.314a.079.079 0 00.079-.078V7.442a.079.079 0 00-.079-.08H1.838v-.238a.079.079 0 00-.043-.07zm-.115.22v1.451l-.505-.352L.64 8l.536-.373zm.158.246h1.235v.96H1.838V8z" fill="#1739b5" style="-inkscape-stroke:none"/><path d="M14.241 7.441v1.117h-1.393V7.441zm0 1.435V7.124L15.498 8l-.628.438z" fill="#005aff" style="-inkscape-stroke:none"/><path d="M14.205 7.054a.079.079 0 00-.043.07v.239h-1.314a.079.079 0 00-.079.078v1.117a.079.079 0 00.079.08h1.314v.238a.079.079 0 00.124.065l.629-.438.628-.438a.079.079 0 000-.13l-.628-.438-.629-.438a.079.079 0 00-.081-.005zm.115.22l.505.353.536.373-.536.373-.505.352V7.441zm-1.393.246h1.235v.96h-1.235z" fill="#1739b5" style="-inkscape-stroke:none"/><path d="M1.976 14.814l-.79-.79.985-.985.79.79zM.962 13.799L2.2 15.04l-1.509.269.135-.754z" fill="#ff4c4c" style="-inkscape-stroke:none"/><path d="M2.171 12.96a.079.079 0 00-.055.023l-.93.93-.168-.17a.079.079 0 00-.134.043l-.27 1.508a.079.079 0 00.092.091l1.509-.27a.079.079 0 00.041-.133l-.168-.168.929-.93a.079.079 0 000-.111l-.79-.79a.079.079 0 00-.056-.023zm0 .19l.679.679-.874.873-.339-.339-.34-.34zm-1.158.812l.118.117.79.79.117.118-.605.108-.643.115.115-.643z" fill="#b51722" style="-inkscape-stroke:none"/><path d="M14.024 1.186l.79.79-.985.985-.79-.79zm1.014 1.015L13.799.96l1.509-.269-.135.754z" fill="#ff4c4c" style="-inkscape-stroke:none"/><path d="M15.294.615l-1.509.27a.079.079 0 00-.041.133l.168.168-.929.93a.079.079 0 000 .111l.79.79a.079.079 0 00.111 0l.93-.93.168.17a.079.079 0 00.134-.043l.27-1.508a.079.079 0 00-.092-.091zM15.21.79l-.115.643-.108.605-.118-.117-.79-.79-.117-.118.605-.108zm-1.186.508l.339.339.34.34-.875.873-.678-.679z" fill="#b51722" style="-inkscape-stroke:none"/><path d="M8.197 4.142h-.394v7.716h.394z" fill="#00ff69" style="-inkscape-stroke:none"/><path d="M7.803 4.063a.079.079 0 00-.079.079v7.716a.079.079 0 00.08.079h.393a.079.079 0 00.079-.079V4.142a.079.079 0 00-.08-.079zm.079.157h.236v7.56h-.236z" fill="#17b54d" style="-inkscape-stroke:none"/><path d="M10.596 5.139l.278.28-5.47 5.442-.278-.279z" fill="#ff4c4c" style="-inkscape-stroke:none"/><path d="M10.596 5.06a.079.079 0 00-.056.023l-5.47 5.443a.079.079 0 000 .111l.278.28a.079.079 0 00.111 0l5.47-5.443a.079.079 0 000-.111l-.277-.28a.079.079 0 00-.056-.023zm0 .19l.166.168-5.358 5.332-.167-.168z" fill="#b51722" style="-inkscape-stroke:none"/><path d="M11.859 7.813l-.001.393-7.717-.019.001-.393z" fill="#005aff" style="-inkscape-stroke:none"/><path d="M4.142 7.715a.079.079 0 00-.079.078v.394a.079.079 0 00.078.079l7.716.019a.079.079 0 00.08-.079v-.393a.079.079 0 00-.078-.08zm.079.157l7.559.02v.235L4.22 8.11z" fill="#1739b5" style="-inkscape-stroke:none"/><path d="M8.551 8A.551.551 0 018 8.551.551.551 0 017.449 8 .551.551 0 018 7.449.551.551 0 018.551 8z" fill="#304060" style="-inkscape-stroke:none"/><path d="M8 7.37a.631.631 0 000 1.26.631.631 0 000-1.26zm0 .158a.471.471 0 110 .945c-.262 0-.472-.211-.472-.473s.21-.472.472-.472z" style="-inkscape-stroke:none"/></g></g></svg>