<svg viewBox="0 0 16 16" xmlns="http://www.w3.org/2000/svg"><g fill="#304060"><path d="M3.654 1.827a1.827 1.827 0 01-1.827 1.827A1.827 1.827 0 010 1.827 1.827 1.827 0 011.827 0a1.827 1.827 0 011.827 1.827zM9.827 1.827A1.827 1.827 0 018 3.654a1.827 1.827 0 01-1.827-1.827A1.827 1.827 0 018 0a1.827 1.827 0 011.827 1.827zM16 1.827a1.827 1.827 0 01-1.827 1.827 1.827 1.827 0 01-1.827-1.827A1.827 1.827 0 0114.173 0 1.827 1.827 0 0116 1.827zM3.654 8a1.827 1.827 0 01-1.827 1.827A1.827 1.827 0 010 8a1.827 1.827 0 011.827-1.827A1.827 1.827 0 013.654 8zM9.827 8A1.827 1.827 0 018 9.827 1.827 1.827 0 016.173 8 1.827 1.827 0 018 6.173 1.827 1.827 0 019.827 8zM16 8a1.827 1.827 0 01-1.827 1.827A1.827 1.827 0 0112.346 8a1.827 1.827 0 011.827-1.827A1.827 1.827 0 0116 8zM3.654 14.173A1.827 1.827 0 011.827 16 1.827 1.827 0 010 14.173a1.827 1.827 0 011.827-1.827 1.827 1.827 0 011.827 1.827zM9.827 14.173A1.827 1.827 0 018 16a1.827 1.827 0 01-1.827-1.827A1.827 1.827 0 018 12.346a1.827 1.827 0 011.827 1.827zM16 14.173A1.827 1.827 0 0114.173 16a1.827 1.827 0 01-1.827-1.827 1.827 1.827 0 011.827-1.827A1.827 1.827 0 0116 14.173z"/></g><g stroke-width="63.5"><g fill="#ddeb42"><path d="M14.96 8a.787.787 0 01-.787.787.787.787 0 01-.787-.787.787.787 0 01.787-.787.787.787 0 01.788.787zM8.787 14.173a.787.787 0 01-.787.788.787.787 0 01-.787-.788.787.787 0 01.787-.787.787.787 0 01.787.787z"/><path d="M8 1.512a.315.315 0 00-.315.315c0 .81.473 1.42 1.094 1.87.622.452 1.406.792 2.172 1.157s1.51.753 2.044 1.245c.533.493.863 1.066.863 1.9 0 .835-.333 1.39-.873 1.867-.54.477-1.294.847-2.068 1.2-.774.352-1.565.686-2.186 1.151-.62.465-1.076 1.111-1.046 1.967a.315.315 0 00.326.304.315.315 0 00.304-.326c-.023-.636.267-1.046.794-1.44.527-.396 1.286-.727 2.069-1.083s1.59-.74 2.224-1.3c.635-.561 1.086-1.327 1.086-2.34 0-1.01-.441-1.785-1.066-2.362s-1.423-.982-2.2-1.352-1.536-.708-2.073-1.097c-.536-.39-.834-.784-.834-1.361A.315.315 0 008 1.512z" color="#000" style="-inkscape-stroke:none"/></g><g fill="#00ffff"><path d="M8.787 1.827A.787.787 0 018 2.614a.787.787 0 01-.787-.787A.787.787 0 018 1.039a.787.787 0 01.787.788zM8.787 8A.787.787 0 018 8.787.787.787 0 017.213 8 .787.787 0 018 7.213.787.787 0 018.787 8z"/><path d="M8 1.512a.315.315 0 00-.315.315V8c0 .636-.312 1.102-.85 1.545s-1.292.828-2.064 1.221-1.563.793-2.183 1.32c-.62.525-1.076 1.21-1.076 2.087a.315.315 0 00.315.315.315.315 0 00.315-.315c0-.666.316-1.152.853-1.607s1.29-.846 2.061-1.239c.771-.392 1.56-.785 2.18-1.296C7.856 9.52 8.315 8.854 8.315 8V1.827A.315.315 0 008 1.512z" color="#000" style="-inkscape-stroke:none"/></g><g fill="#e11b1b"><path d="M2.614 8a.787.787 0 01-.787.787A.787.787 0 011.039 8a.787.787 0 01.788-.787.787.787 0 01.787.787zM2.614 14.173a.787.787 0 01-.787.788.787.787 0 01-.788-.788.787.787 0 01.788-.787.787.787 0 01.787.787zM2.614 1.827a.787.787 0 01-.787.787.787.787 0 01-.788-.787.787.787 0 01.788-.788.787.787 0 01.787.788z"/><path d="M1.827 1.512a.315.315 0 00-.315.315v12.346a.315.315 0 00.315.315.315.315 0 00.315-.315V1.827a.315.315 0 00-.315-.315z" color="#000" style="-inkscape-stroke:none"/></g></g></svg>