<svg viewBox="0 0 16 16" xmlns="http://www.w3.org/2000/svg"><g stroke-width="80" color="#000"><path d="M9.185 3.379A1.969 1.969 0 018 3.78a1.969 1.969 0 01-.087-.006c.188.29.417.535.674.731.712.544 1.558.773 2.331 1 .773.227 1.474.45 1.923.793a2.4 2.4 0 01.162.135 1.969 1.969 0 011.184-.403 1.969 1.969 0 01.085.002 2.913 2.913 0 00-.672-.727c-.711-.544-1.557-.773-2.33-1-.774-.226-1.475-.45-1.924-.793a2.4 2.4 0 01-.161-.134zm3.818 6.187a2.399 2.399 0 01-.162.135c-.449.343-1.15.566-1.923.793-.773.226-1.62.456-2.33 1a2.913 2.913 0 00-.675.731A1.969 1.969 0 018 12.219a1.969 1.969 0 011.188.4c.05-.046.103-.09.158-.132.45-.343 1.15-.567 1.924-.793.773-.227 1.619-.456 2.33-1 .257-.197.486-.441.674-.731a1.969 1.969 0 01-.086.006 1.969 1.969 0 01-1.185-.403z" fill="#ddeb42" style="-inkscape-stroke:none"/><path d="M7.375 3.675v2.462A1.969 1.969 0 018 6.031a1.969 1.969 0 01.625.103V3.675A1.969 1.969 0 018 3.781a1.969 1.969 0 01-.625-.106zm-.56 5.891a2.4 2.4 0 01-.161.135c-.45.343-1.15.566-1.923.793-.774.227-1.62.456-2.331 1a2.913 2.913 0 00-.674.731 1.969 1.969 0 01.087-.006 1.969 1.969 0 011.188.4c.05-.046.102-.09.158-.132.449-.343 1.15-.567 1.923-.793.773-.227 1.62-.456 2.33-1 .258-.196.487-.441.675-.731A1.969 1.969 0 018 9.969a1.969 1.969 0 01-1.185-.403z" fill="#0ff" style="-inkscape-stroke:none"/><path d="M1.188 3.675v2.462a1.969 1.969 0 01.625-.106 1.969 1.969 0 01.625.103V3.675a1.969 1.969 0 01-.626.106 1.969 1.969 0 01-.625-.106zm0 6.188v2.462a1.969 1.969 0 01.625-.106 1.969 1.969 0 01.625.102V9.863a1.969 1.969 0 01-.626.106 1.969 1.969 0 01-.625-.106z" fill="#e11b1b" style="-inkscape-stroke:none"/></g><path d="M16 8a1.813 1.813 0 01-1.813 1.813A1.813 1.813 0 0112.376 8a1.813 1.813 0 011.813-1.813A1.813 1.813 0 0116 8zM9.813 14.188A1.813 1.813 0 018 16a1.813 1.813 0 01-1.813-1.813A1.813 1.813 0 018 12.376a1.813 1.813 0 011.813 1.813z" fill="#ddeb42"/><path d="M9.813 1.813A1.813 1.813 0 018 3.625a1.813 1.813 0 01-1.813-1.813A1.813 1.813 0 018 0a1.813 1.813 0 011.813 1.813zM9.813 8A1.813 1.813 0 018 9.813 1.813 1.813 0 016.187 8 1.813 1.813 0 018 6.187 1.813 1.813 0 019.813 8z" fill="#0ff"/><g fill="#e11b1b"><path d="M3.625 1.813a1.813 1.813 0 01-1.813 1.812A1.813 1.813 0 010 1.812 1.813 1.813 0 011.813 0a1.813 1.813 0 011.812 1.813zM3.625 8a1.813 1.813 0 01-1.813 1.813A1.813 1.813 0 010 8a1.813 1.813 0 011.813-1.813A1.813 1.813 0 013.625 8zM3.625 14.188A1.813 1.813 0 011.812 16 1.813 1.813 0 010 14.187a1.813 1.813 0 011.813-1.812 1.813 1.813 0 011.812 1.813z"/></g><path d="M16 1.813a1.813 1.813 0 01-1.813 1.812 1.813 1.813 0 01-1.812-1.813A1.813 1.813 0 0114.188 0 1.813 1.813 0 0116 1.813zM16 14.188a1.813 1.813 0 01-1.813 1.813 1.813 1.813 0 01-1.812-1.813 1.813 1.813 0 011.813-1.812A1.813 1.813 0 0116 14.188z" fill="#304060"/></svg>